<mxfile host="app.diagrams.net" agent="Mozilla/5.0 (Windows NT 10.0; Win64; x64) AppleWebKit/537.36 (KHTML, like Gecko) Chrome/131.0.0.0 Safari/537.36" version="25.0.1">
  <diagram name="หน้า-1" id="zM7SnmOZuKqq9Z4B7AVB">
    <mxGraphModel dx="1050" dy="530" grid="1" gridSize="10" guides="1" tooltips="1" connect="1" arrows="1" fold="1" page="1" pageScale="1" pageWidth="827" pageHeight="1169" math="0" shadow="0">
      <root>
        <mxCell id="0" />
        <mxCell id="1" parent="0" />
        <mxCell id="Q_VMbxBM9lqUhwTfA5v--3" value="" style="edgeStyle=orthogonalEdgeStyle;rounded=0;orthogonalLoop=1;jettySize=auto;html=1;" edge="1" parent="1" source="Q_VMbxBM9lqUhwTfA5v--1" target="Q_VMbxBM9lqUhwTfA5v--2">
          <mxGeometry relative="1" as="geometry" />
        </mxCell>
        <mxCell id="Q_VMbxBM9lqUhwTfA5v--1" value="Start" style="ellipse;whiteSpace=wrap;html=1;" vertex="1" parent="1">
          <mxGeometry x="354" y="10" width="120" height="80" as="geometry" />
        </mxCell>
        <mxCell id="Q_VMbxBM9lqUhwTfA5v--5" value="" style="edgeStyle=orthogonalEdgeStyle;rounded=0;orthogonalLoop=1;jettySize=auto;html=1;" edge="1" parent="1" source="Q_VMbxBM9lqUhwTfA5v--2" target="Q_VMbxBM9lqUhwTfA5v--4">
          <mxGeometry relative="1" as="geometry" />
        </mxCell>
        <mxCell id="Q_VMbxBM9lqUhwTfA5v--2" value="Input N" style="shape=parallelogram;perimeter=parallelogramPerimeter;whiteSpace=wrap;html=1;fixedSize=1;" vertex="1" parent="1">
          <mxGeometry x="354" y="180" width="120" height="60" as="geometry" />
        </mxCell>
        <mxCell id="Q_VMbxBM9lqUhwTfA5v--7" value="" style="edgeStyle=orthogonalEdgeStyle;rounded=0;orthogonalLoop=1;jettySize=auto;html=1;" edge="1" parent="1" source="Q_VMbxBM9lqUhwTfA5v--4" target="Q_VMbxBM9lqUhwTfA5v--6">
          <mxGeometry relative="1" as="geometry" />
        </mxCell>
        <mxCell id="Q_VMbxBM9lqUhwTfA5v--4" value="Input numbers" style="shape=parallelogram;perimeter=parallelogramPerimeter;whiteSpace=wrap;html=1;fixedSize=1;" vertex="1" parent="1">
          <mxGeometry x="354" y="320" width="120" height="60" as="geometry" />
        </mxCell>
        <mxCell id="Q_VMbxBM9lqUhwTfA5v--9" value="" style="edgeStyle=orthogonalEdgeStyle;rounded=0;orthogonalLoop=1;jettySize=auto;html=1;" edge="1" parent="1" source="Q_VMbxBM9lqUhwTfA5v--6" target="Q_VMbxBM9lqUhwTfA5v--8">
          <mxGeometry relative="1" as="geometry" />
        </mxCell>
        <mxCell id="Q_VMbxBM9lqUhwTfA5v--6" value="find unique number" style="whiteSpace=wrap;html=1;" vertex="1" parent="1">
          <mxGeometry x="354" y="460" width="120" height="60" as="geometry" />
        </mxCell>
        <mxCell id="Q_VMbxBM9lqUhwTfA5v--11" value="" style="edgeStyle=orthogonalEdgeStyle;rounded=0;orthogonalLoop=1;jettySize=auto;html=1;" edge="1" parent="1" source="Q_VMbxBM9lqUhwTfA5v--8" target="Q_VMbxBM9lqUhwTfA5v--10">
          <mxGeometry relative="1" as="geometry" />
        </mxCell>
        <mxCell id="Q_VMbxBM9lqUhwTfA5v--8" value="Output unique number" style="shape=parallelogram;perimeter=parallelogramPerimeter;whiteSpace=wrap;html=1;fixedSize=1;" vertex="1" parent="1">
          <mxGeometry x="354" y="600" width="120" height="60" as="geometry" />
        </mxCell>
        <mxCell id="Q_VMbxBM9lqUhwTfA5v--10" value="End" style="ellipse;whiteSpace=wrap;html=1;" vertex="1" parent="1">
          <mxGeometry x="354" y="740" width="120" height="80" as="geometry" />
        </mxCell>
      </root>
    </mxGraphModel>
  </diagram>
</mxfile>
